<svg xmlns="http://www.w3.org/2000/svg" width="226.263" height="83.002" viewBox="0 0 226.263 83.002" ><defs><style>.cls-1{fill:#5d6770;}.cls-2{fill:#00abc7;}</style></defs><title>ERCOT-logo</title>
  <g id="Layer_2" data-name="Layer 2" transform="translate(-0.007 -0.02)">
    <g id="Layer_1" data-name="Layer 1">
      <g id="Layer_1-2" data-name="Layer 1-2">
        <path id="Path_22" data-name="Path 22" d="M29.34,48.89c-2.89,9.23-8.7,13.53-17.89,13.53-4.56,0-7.79-1.16-9.59-3.43-2-2.57-2.41-6.74-1.09-12.38L3.91,33.18C6.45,22.25,12.56,17,22.54,17c4.56,0,7.79,1.15,9.59,3.43,2,2.57,2.41,6.74,1.1,12.37l-1.56,6.8a1.1,1.1,0,0,1-1.2.91H11.31c-.77,0-1.07,0-1.24.76l-1.55,6.6c-.76,3.25-.57,5.54.59,7a5,5,0,0,0,4.17,1.68c4.12,0,6.87-2.67,8.18-7.93a.78.78,0,0,1,.75-.57h6.53a.55.55,0,0,1,.67.42.51.51,0,0,1-.07.42M20.71,22.81c-4.2,0-7,2.77-8.25,8.23L12,33.09a1.78,1.78,0,0,0,0,1.07c.2.45.52.46,1.16.46H23.75c.77,0,1-.11,1.18-.84l.52-2.3c.76-3.25.57-5.54-.58-7a5,5,0,0,0-4.18-1.68" class="cls-1" />
        <path id="Path_23" data-name="Path 23" d="M65.54,17.58c-.34,1.48-1.19,5.1-1.53,6.54a.59.59,0,0,1-.71.45h0A19.92,19.92,0,0,0,58.35,24c-3.61,0-8,2.15-9.1,6.87L42.18,61.09a.61.61,0,0,1-.6.48h-7a.49.49,0,0,1-.48-.5v-.1l10-42.71a.62.62,0,0,1,.6-.47h6.11c.58,0,.92.11.78.67l-.15,1c-.17,1,.54,1.07,1.49.36a15.87,15.87,0,0,1,12.06-3,.61.61,0,0,1,.51.7" class="cls-1"/>
        <path id="Path_24" data-name="Path 24" d="M91.7,46.18a.45.45,0,0,1,.44.45.29.29,0,0,1,0,.09c-2.67,10.57-8.67,15.7-18.5,15.7-4.56,0-7.79-1.16-9.59-3.43-2-2.58-2.41-6.74-1.09-12.38L66.1,33.19C68.64,22.25,74.73,17,84.71,17c4.49,0,7.69,1.11,9.5,3.3s2.39,5.82,1.58,10.58a.8.8,0,0,1-.79.66H88.2a.45.45,0,0,1-.44-.46s0-.07,0-.1c.61-3,.37-5.07-.71-6.43a5,5,0,0,0-4.17-1.68c-4.21,0-7,2.77-8.26,8.23L70.69,47.87c-.76,3.25-.57,5.54.59,7a5,5,0,0,0,4.17,1.67c4.2,0,7-2.76,8.26-8.23l.4-1.72a.54.54,0,0,1,.52-.41Z" class="cls-1"/>
        <path id="Path_25" data-name="Path 25" d="M109.08,62.42c-4.56,0-7.78-1.16-9.59-3.43-2-2.57-2.41-6.74-1.09-12.38l3.14-13.42C104.1,22.25,110.19,17,120.17,17c4.57,0,7.79,1.15,9.6,3.43,2,2.57,2.41,6.74,1.09,12.37l-3.14,13.43c-2.56,10.93-8.66,16.25-18.64,16.25m9.27-39.61c-4.21,0-7,2.77-8.26,8.23l-3.94,16.79c-.76,3.25-.57,5.54.59,7a5,5,0,0,0,4.17,1.68c4.2,0,7-2.78,8.26-8.24L123.1,31.5c.77-3.25.57-5.54-.58-7a5,5,0,0,0-4.17-1.68" class="cls-1"/>
        <path id="Path_26" data-name="Path 26" d="M142,24.34l-6.78,29c-.68,2.89-.43,5.1.74,6.57,1.32,1.67,3.9,2.52,7.65,2.52a21.42,21.42,0,0,0,4-.29.49.49,0,0,0,.39-.38l1.32-5.66a.32.32,0,0,0-.25-.39H147.3c-1.36,0-2.77-.15-3.4-.94s-.46-2.38-.08-4L150,24.25c.13-.5.41-.59.89-.59h5.45a.66.66,0,0,0,.65-.51l1.12-4.81a.45.45,0,0,0-.33-.54h-5.62a.48.48,0,0,1-.47-.7l2.53-10.87c.16-.78-.51-.75-.51-.75H147a.69.69,0,0,0-.67.45l-2.66,11.31c-.13.42-.19.56-.69.56h-5.31s-.45,0-.7.62L135.84,23c-.14.54.48.64.48.64h5.06s.78,0,.6.68" class="cls-1"/>
        <path id="Path_27" data-name="Path 27" d="M210.86,40.72,190.5,64.33a.22.22,0,0,1-.32,0,.24.24,0,0,1-.09-.24l2-10.57a.55.55,0,0,0-.52-.59h-.12l-4.68,1.37a1.22,1.22,0,0,0-.84.93L181.39,82.3c-.09.7.5,1,1,.4L218.5,40.28a1,1,0,0,0,.07-1.14A10.9,10.9,0,0,0,213,34.79c-6.82-2.68-14.76,2.07-20.18,4.93-13.87,7.34-22.18.54-23.88-1.2a1,1,0,0,0-.69-.28h-5.91a.39.39,0,0,0-.37.4.37.37,0,0,0,.06.21c1.3,1.73,5.22,6.6,10.74,8.42,4.89,1.61,12.7,3,22.85-2.45l.13-.08c5.46-3.11,11.28-5.77,14.87-4.55,0,0,.48.16.21.54M194.25,20.66c-8.55,5.07-14.31,5.65-16.42,4.45a.75.75,0,0,1-.36-.81l3.82-18.19a.52.52,0,0,1,.5-.41h11.43a.3.3,0,0,1,.3.3.17.17,0,0,1,0,.07l-2.15,9.44a.35.35,0,0,0,.26.42.36.36,0,0,0,.23,0l4.91-2.19a.92.92,0,0,0,.58-.72l2.72-12a.79.79,0,0,0-.57-1H177.29a.84.84,0,0,0-.82.67L171,26.5a1.16,1.16,0,0,0,.21.9l.58.75c.43.56,3,3.29,8.71,3.29,3.83,0,8.41-1.28,17.29-5.9.14-.08,13.75-8.25,21.5.87a.94.94,0,0,0,.69.32h5.91a.38.38,0,0,0,.38-.38.36.36,0,0,0-.06-.2c-9.9-15.57-24.78-9.78-32-5.49" class="cls-2"/>
      </g>
    </g>
  </g>
</svg>
